<svg width="137" height="136" viewBox="0 0 137 136" fill="none" xmlns="http://www.w3.org/2000/svg">
<path d="M68.4968 0C30.9454 0 0.496826 30.4439 0.496826 68C0.496826 105.556 30.9424 136 68.4968 136C106.054 136 136.497 105.556 136.497 68C136.497 30.4439 106.054 0 68.4968 0Z" fill="#E2E2E9"/>
<path d="M90.9913 42.8249C90.9913 30.4048 80.9224 20.3325 68.4969 20.3325C56.0773 20.3325 46.0084 30.4048 46.0084 42.8249C46.0084 55.2481 56.0773 65.3174 68.4969 65.3174C80.9224 65.3174 90.9913 55.2481 90.9913 42.8249Z" fill="white"/>
<path d="M35.9844 106.237C44.739 113.707 56.0892 118.221 68.4819 118.221C80.8776 118.221 92.2309 113.707 100.983 106.234C103.118 104.415 104.343 101.753 104.343 98.9515C104.343 86.3551 94.1873 76.2738 81.5855 76.2738H55.4142C42.8154 76.2738 32.6211 86.3551 32.6211 98.9515C32.6211 101.75 33.8517 104.418 35.9844 106.237Z" fill="white"/>
</svg>
